<svg version="1.1" xmlns="http://www.w3.org/2000/svg" xmlns:xlink="http://www.w3.org/1999/xlink" x="0px" y="0px" viewBox="0 0 512 512" enable-background="new 0 0 512 512" xml:space="preserve"> <path id="fingerprint-3-icon" d="M110.513,261.184c-6.984,2.175-14.178-2.726-14.71-10.015c-0.002-0.029-0.003-0.058-0.005-0.087
c-0.382-5.259,2.921-10.088,7.954-11.654c50.312-15.653,88.509-48.144,156.964-48.144c60.143,0,98.98,34.525,147.482,54.104
c5.153,2.081,8.349,7.268,7.878,12.806c0,0.002-0.002,0.003-0.002,0.005c-0.607,7.141-7.945,11.693-14.618,9.057
c-50.778-20.074-86.683-53.183-140.74-53.183C198.006,214.072,163.308,244.751,110.513,261.184z M260.717,166.217
c55.181,0,96.197,27.867,140.625,46.648c7.488,3.167,15.598-2.846,14.841-10.867c-0.001-0.009-0.002-0.018-0.004-0.028
c-0.455-4.823-3.512-9.016-7.962-10.933c-44.213-19.046-87.071-47.608-147.5-47.608c-71.136,0-108.182,28.985-156.428,44.891
c-4.221,1.392-7.249,5.126-7.736,9.543c-0.003,0.027-0.005,0.055-0.009,0.083c-0.9,8.189,6.974,14.612,14.843,12.019
C161.674,193.398,194.977,166.217,260.717,166.217z M260.717,119.502c47.296,0,88.309,16.149,125.151,34.626
c4.222,2.118,9.312,1.4,12.785-1.799c5.926-5.462,4.349-15.105-2.644-18.619c-39.162-19.676-83.11-36.997-135.293-36.997
c-62.805,0-101.751,15.378-143.067,34.438c-7.215,3.327-8.943,13.012-3.178,18.582c3.372,3.256,8.395,4.106,12.649,2.141
C167.293,133.337,202.55,119.502,260.717,119.502z M331.191,83.827c5.4,1.747,11.946-0.704,14.41-5.817
c2.398-4.979,1.042-12.707-6.054-15.375C316.323,53.898,290.348,50,260.717,50c-35.3,0-61.773,4.111-87.672,12.461
c-7.192,2.32-8.824,10.774-6.423,15.833c2.427,5.112,9.099,7.188,14.498,5.502c23.676-7.387,47.57-11.01,79.597-11.01
C287.105,72.787,309.943,76.953,331.191,83.827z M258.438,263.065c42.009,0,82.503,31.596,136.722,50.366
c5.853,2.026,12.159-1.512,13.522-7.5c1.425-6.263-2.058-12.567-8.11-14.719c-52.04-18.486-94.053-50.935-142.134-50.935
c-53.071,0-94.731,33.79-146.874,48.021c-5.884,1.605-9.451,7.575-8.071,13.516c0.004,0.021,0.009,0.039,0.013,0.059
c1.458,6.262,7.831,10.08,14.058,8.379C171.504,295.519,212.038,263.065,258.438,263.065z M256.159,315.478
c37.077,0,76.842,22.07,125.065,39.408c5.959,2.142,12.539-0.879,14.792-6.799c2.222-5.84-0.786-12.357-6.656-14.466
c-48.211-17.33-90.726-40.932-133.201-40.932c-45.401,0-83.243,23.866-131.542,38.742c-6.349,1.956-9.65,8.927-7.222,15.047
c0.008,0.02,0.017,0.04,0.023,0.06c2.188,5.506,8.223,8.39,13.887,6.648C180.626,338.021,216.178,315.478,256.159,315.478z
M257.299,341.684c-38.303,0-73.931,15.117-113.747,28.896c-6.864,2.374-9.737,10.49-5.996,16.638
c0.016,0.027,0.031,0.053,0.047,0.078c2.781,4.566,8.352,6.562,13.404,4.815c39.711-13.729,72.272-27.639,106.292-27.639
c34.744,0,65.568,15.791,104.009,31.34c5.002,2.023,10.744,0.151,13.577-4.442c0.003-0.003,0.005-0.008,0.007-0.011
c3.768-6.109,1.149-14.168-5.542-16.878C331.123,359.002,297.021,341.684,257.299,341.684z M170.981,406.503
c-7.76,2.85-9.957,12.778-4.176,18.635c0.002,0.002,0.004,0.004,0.006,0.005c3.151,3.192,7.882,4.249,12.093,2.703
c24.078-8.837,48.733-14.381,78.395-14.381c25.157,0,49.135,7.548,74.281,18.478c4.176,1.815,9.039,0.974,12.36-2.141
c0.001-0.001,0.002-0.001,0.003-0.002c5.944-5.572,4.275-15.457-3.259-18.725c-27.257-11.816-54.438-20.397-83.386-20.397
C224.448,390.678,197.067,396.932,170.981,406.503z M220.785,438.774c-6.447,1.841-10.53,8.012-8.665,14.378
c1.731,5.915,7.81,9.498,13.247,8.003c27.872-7.669,35.777-7.883,61.815,0.393c5.449,1.731,11.259-1.698,13.272-7.077
c2.374-6.341-1.468-12.834-7.988-15.089C267.767,430.841,249.322,430.627,220.785,438.774z"></path> </svg>